# xmcd
#
# Track frame offsets: 
#        150
#        9695
#        24742
#        36307
#        49597
#        64315
#        75032
#        87882
#        102025
#        110790
#        120887
#        131225
#        144422
#        157042
#        172747
#        191767
#        202860
#        219755
#
# Disc length: 3118 seconds
#
# Revision: 3
# Processed by: cddbd v1.5.1PL2 Copyright (c) Steve Scherf et al.
# Submitted via: ExactAudioCopy v0.90b4
#
DISCID=e70c2c12
DTITLE=Chris LeDoux - American Cowboy [CD1]
DYEAR=1994
DGENRE=Country
TTITLE0=Mighty Lucky Man
TTITLE1=The Bucking Machine
TTITLE2=Born To Follow Rodeo
TTITLE3=Bareback Jack
TTITLE4=I've Got To Be A Rodeo Man
TTITLE5=Goin' And Blowin'
TTITLE6=The Yellow Stud
TTITLE7=Cowboy In A Continental Suit
TTITLE8=Copenhagen
TTITLE9=Amarillo By Morning
TTITLE10=What More Could A Cowboy Need
TTITLE11=Too Tough To Die
TTITLE12=He Rides The Wild Horses
TTITLE13=When The Rodeo Comes To Town
TTITLE14=Night Rides Lament
TTITLE15=So You Want To Be A Cowboy
TTITLE16=The Cowboy And The Hippie
TTITLE17=They Couldn't Understand My Cowboy Songs
EXTD=
EXTT0=
EXTT1=
EXTT2=
EXTT3=
EXTT4=
EXTT5=
EXTT6=
EXTT7=
EXTT8=
EXTT9=
EXTT10=
EXTT11=
EXTT12=
EXTT13=
EXTT14=
EXTT15=
EXTT16=
EXTT17=
PLAYORDER=
